<?xml version="1.0" encoding="UTF-8"?>
<!DOCTYPE svg PUBLIC "-//W3C//DTD SVG 1.1//EN" "http://www.w3.org/Graphics/SVG/1.1/DTD/svg11.dtd">
<svg xmlns="http://www.w3.org/2000/svg" version="1.1" width="607px" height="251px" style="shape-rendering:geometricPrecision; text-rendering:geometricPrecision; image-rendering:optimizeQuality; fill-rule:evenodd; clip-rule:evenodd" xmlns:xlink="http://www.w3.org/1999/xlink">
<g><path style="opacity:1" fill="#0c53dd" d="M 61.5,23.5 C 221.543,23.0057 381.543,23.5057 541.5,25C 561.107,30.94 573.607,43.7733 579,63.5C 579.976,102.88 579.643,142.213 578,181.5C 571.053,200.779 557.553,212.612 537.5,217C 377.458,217.994 217.458,217.661 57.5,216C 37.893,210.06 25.393,197.227 20,177.5C 19.3333,139.5 19.3333,101.5 20,63.5C 26.1878,42.1442 40.0211,28.8108 61.5,23.5 Z"/></g>
<g><path style="opacity:1" fill="#fdfdfe" d="M 424.5,211.5 C 444.941,177.219 465.608,143.053 486.5,109C 478.167,108.333 469.833,108.333 461.5,109C 450.287,127.923 439.454,147.09 429,166.5C 423.521,147.233 418.355,127.9 413.5,108.5C 400.5,108.5 387.5,108.5 374.5,108.5C 370.18,139.087 366.513,169.754 363.5,200.5C 370.833,200.5 378.167,200.5 385.5,200.5C 388.011,175.076 391.178,149.742 395,124.5C 404.633,153.367 413.799,182.367 422.5,211.5C 302.166,211.667 181.833,211.5 61.5,211C 42.7684,206.602 30.9351,195.102 26,176.5C 25.3333,139.167 25.3333,101.833 26,64.5C 30.8333,46.3333 42.3333,34.8333 60.5,30C 218.833,29.3333 377.167,29.3333 535.5,30C 554.911,33.4101 567.411,44.5768 573,63.5C 573.667,101.167 573.667,138.833 573,176.5C 568.065,195.102 556.232,206.602 537.5,211C 499.835,211.5 462.168,211.667 424.5,211.5 Z"/></g>
<g><path style="opacity:1" fill="#010102" d="M 140.5,118.5 C 145.922,126.76 149.588,135.76 151.5,145.5C 151.5,149.833 151.5,154.167 151.5,158.5C 149.774,168.943 146.108,178.61 140.5,187.5C 123.907,205.055 104.907,208.222 83.5,197C 81.2406,195.285 79.0739,193.452 77,191.5C 76.502,194.482 76.3354,197.482 76.5,200.5C 69.1667,200.5 61.8333,200.5 54.5,200.5C 54.5,145.5 54.5,90.5 54.5,35.5C 61.8333,35.5 69.1667,35.5 76.5,35.5C 76.3334,62.1687 76.5,88.8354 77,115.5C 94.2081,99.8622 112.708,98.3622 132.5,111C 135.036,113.705 137.703,116.205 140.5,118.5 Z"/></g>
<g><path style="opacity:1" fill="#099bda" d="M 351.5,35.5 C 358.5,35.5 365.5,35.5 372.5,35.5C 366.094,90.491 359.76,145.491 353.5,200.5C 346.167,200.5 338.833,200.5 331.5,200.5C 337.892,145.459 344.559,90.4595 351.5,35.5 Z"/></g>
<g><path style="opacity:1" fill="#139cda" d="M 386.5,52.5 C 398.837,51.6694 404.004,57.336 402,69.5C 398.064,76.0522 392.564,77.8855 385.5,75C 377.261,67.0183 377.594,59.5183 386.5,52.5 Z"/></g>
<g><path style="opacity:1" fill="#020303" d="M 225.5,200.5 C 225.5,168.833 225.5,137.167 225.5,105.5C 232.833,105.5 240.167,105.5 247.5,105.5C 247.336,108.187 247.503,110.854 248,113.5C 257.004,102.265 268.171,99.4316 281.5,105C 285.152,105.499 288.818,105.665 292.5,105.5C 292.5,93.8333 292.5,82.1667 292.5,70.5C 299.833,70.5 307.167,70.5 314.5,70.5C 314.5,82.1667 314.5,93.8333 314.5,105.5C 320.167,105.5 325.833,105.5 331.5,105.5C 331.5,112.167 331.5,118.833 331.5,125.5C 325.833,125.5 320.167,125.5 314.5,125.5C 314.5,150.5 314.5,175.5 314.5,200.5C 307.167,200.5 299.833,200.5 292.5,200.5C 292.5,175.5 292.5,150.5 292.5,125.5C 289.167,125.5 285.833,125.5 282.5,125.5C 282.662,123.473 282.495,121.473 282,119.5C 280.822,122.533 279.156,125.199 277,127.5C 271.118,124.717 264.951,123.884 258.5,125C 253.884,127.618 250.717,131.451 249,136.5C 247.545,157.78 247.045,179.113 247.5,200.5C 240.167,200.5 232.833,200.5 225.5,200.5 Z"/></g>
<g><path style="opacity:1" fill="#079ad9" d="M 225.5,105.5 C 225.5,137.167 225.5,168.833 225.5,200.5C 218.167,200.5 210.833,200.5 203.5,200.5C 203.665,197.482 203.498,194.482 203,191.5C 187.308,204.849 170.141,207.015 151.5,198C 147.332,194.998 143.665,191.498 140.5,187.5C 146.108,178.61 149.774,168.943 151.5,158.5C 158.397,183.115 173.064,189.282 195.5,177C 204,166.169 206.5,154.002 203,140.5C 196.784,126.975 186.284,121.142 171.5,123C 161.077,127.252 154.41,134.752 151.5,145.5C 149.588,135.76 145.922,126.76 140.5,118.5C 151.935,104.188 166.602,99.3551 184.5,104C 191.725,106.193 197.892,110.026 203,115.5C 203.498,112.183 203.665,108.85 203.5,105.5C 210.833,105.5 218.167,105.5 225.5,105.5 Z"/></g>
<g><path style="opacity:1" fill="#0b9bda" d="M 424.5,211.5 C 423.833,211.5 423.167,211.5 422.5,211.5C 413.799,182.367 404.633,153.367 395,124.5C 391.178,149.742 388.011,175.076 385.5,200.5C 378.167,200.5 370.833,200.5 363.5,200.5C 366.513,169.754 370.18,139.087 374.5,108.5C 387.5,108.5 400.5,108.5 413.5,108.5C 418.355,127.9 423.521,147.233 429,166.5C 439.454,147.09 450.287,127.923 461.5,109C 469.833,108.333 478.167,108.333 486.5,109C 465.608,143.053 444.941,177.219 424.5,211.5 Z"/></g>
<g><path style="opacity:1" fill="#0b9bda" d="M 510.5,108.5 C 549.123,105.789 567.789,123.789 566.5,162.5C 542.5,162.5 518.5,162.5 494.5,162.5C 495.553,173.726 501.553,180.893 512.5,184C 524.256,185.635 534.422,182.469 543,174.5C 548.386,176.776 553.553,179.443 558.5,182.5C 545.168,198.477 528.168,204.31 507.5,200C 480.312,192.449 468.812,174.615 473,146.5C 478.349,126.652 490.849,113.985 510.5,108.5 Z"/></g>
<g><path style="opacity:1" fill="#fcfcfc" d="M 96.5,122.5 C 113.295,121.452 123.795,129.119 128,145.5C 130.326,158.858 126.492,170.025 116.5,179C 97.1245,188.065 83.6245,182.565 76,162.5C 71.6259,142.981 78.4592,129.647 96.5,122.5 Z"/></g>
<g><path style="opacity:1" fill="#fdfefe" d="M 151.5,158.5 C 151.5,154.167 151.5,149.833 151.5,145.5C 154.41,134.752 161.077,127.252 171.5,123C 186.284,121.142 196.784,126.975 203,140.5C 206.5,154.002 204,166.169 195.5,177C 173.064,189.282 158.397,183.115 151.5,158.5 Z"/></g>
<g><path style="opacity:1" fill="#fcfefe" d="M 516.5,124.5 C 531.891,123.73 540.891,130.897 543.5,146C 527.49,146.833 511.49,146.666 495.5,145.5C 497.909,138.496 501.909,132.663 507.5,128C 510.459,126.396 513.459,125.229 516.5,124.5 Z"/></g>
</svg>
